<mxfile host="app.diagrams.net" agent="Mozilla/5.0 (Windows NT 10.0; Win64; x64) AppleWebKit/537.36 (KHTML, like Gecko) Chrome/135.0.0.0 Safari/537.36 Edg/135.0.0.0" version="26.1.1">
  <diagram name="Page-1" id="3hbqBePf8mesvcO_13ee">
    <mxGraphModel dx="1282" dy="565" grid="1" gridSize="10" guides="1" tooltips="1" connect="1" arrows="1" fold="1" page="1" pageScale="1" pageWidth="850" pageHeight="1100" math="0" shadow="0">
      <root>
        <mxCell id="0" />
        <mxCell id="1" parent="0" />
        <mxCell id="qKkn-Dw1OFRTo-UNpiHM-3" value="" style="edgeStyle=orthogonalEdgeStyle;rounded=0;orthogonalLoop=1;jettySize=auto;html=1;" edge="1" parent="1" source="qKkn-Dw1OFRTo-UNpiHM-1" target="qKkn-Dw1OFRTo-UNpiHM-2">
          <mxGeometry relative="1" as="geometry" />
        </mxCell>
        <mxCell id="qKkn-Dw1OFRTo-UNpiHM-1" value="研究背景和意义" style="rounded=1;whiteSpace=wrap;html=1;" vertex="1" parent="1">
          <mxGeometry x="260" y="120" width="120" height="60" as="geometry" />
        </mxCell>
        <mxCell id="qKkn-Dw1OFRTo-UNpiHM-2" value="研究现状" style="whiteSpace=wrap;html=1;rounded=1;" vertex="1" parent="1">
          <mxGeometry x="260" y="230" width="120" height="60" as="geometry" />
        </mxCell>
      </root>
    </mxGraphModel>
  </diagram>
</mxfile>
